Coordinates
version=1
nRows=19
nColumns=24
inDegrees=yes

Units are S.I. units (second, meters, Newtons, ...)
Angles are in degrees.

endheader
time	pelvis_tilt	pelvis_list	pelvis_rotation	pelvis_tx	pelvis_ty	pelvis_tz	hip_flexion_r	hip_adduction_r	hip_rotation_r	knee_angle_r	ankle_angle_r	subtalar_angle_r	mtp_angle_r	hip_flexion_l	hip_adduction_l	hip_rotation_l	knee_angle_l	ankle_angle_l	subtalar_angle_l	mtp_angle_l	lumbar_extension	lumbar_bending	lumbar_rotation
      2.99500000	     37.57605052	      6.81199872	      6.21059739	     -1.16541607	      0.63697524	     -0.29344707	    -56.51613215	      1.96874524	     -6.70198125	    -20.15727373	     24.05858657	     10.91211181	      0.00000000	     -9.19090677	      4.02250976	     -9.26483595	     -7.22104099	      1.65996595	     21.95448826	      0.00000000	    -66.19199419	     -4.06602670	      0.92185498
      3.00000000	     37.64497280	      6.95744957	      5.93663132	     -1.15765625	      0.63628179	     -0.29394127	    -56.54624782	      1.52234312	     -6.67036922	    -21.63714051	     22.95692549	     11.27657643	      0.00000000	     -9.23412644	      4.27621771	     -9.24936823	     -8.07302403	      1.52445193	     21.98846386	      0.00000000	    -66.14099499	     -4.40940221	      0.86461217
      3.00500000	     37.77415450	      7.12473928	      5.47882873	     -1.14982939	      0.63568646	     -0.29440961	    -56.56024089	      0.86752304	     -6.67108275	    -23.24138834	     21.89570672	     11.92235184	      0.00000000	     -9.34736863	      4.60604308	     -9.21115213	     -9.06639731	      1.44486018	     21.61024172	      0.00000000	    -66.12967655	     -4.90698080	      0.96289022
      3.01000000	     37.92853031	      7.34511917	      5.09337769	     -1.14195743	      0.63513559	     -0.29486587	    -56.57774162	      0.24346599	     -6.77720645	    -24.85813782	     20.57152220	     12.49789359	      0.00000000	     -9.44288010	      4.97024066	     -9.02267686	    -10.26808115	      1.44903305	     21.08060784	      0.00000000	    -66.13943150	     -5.37495031	      0.91757098
      3.01500000	     38.09043212	      7.57665859	      4.70646016	     -1.13406690	      0.63464680	     -0.29533807	    -56.54240137	     -0.41390656	     -6.97155164	    -26.53120521	     19.08156368	     13.08188837	      0.00000000	     -9.50988939	      5.36009064	     -8.71186011	    -11.63473955	      1.50773153	     20.31675288	      0.00000000	    -66.14917692	     -5.84511806	      0.84076904
      3.02000000	     38.26554588	      7.82691769	      4.33809551	     -1.12619418	      0.63421186	     -0.29586992	    -56.44518422	     -1.09704422	     -7.25414019	    -28.28883714	     17.44202606	     13.66701192	      0.00000000	     -9.57147054	      5.79502995	     -8.25556681	    -13.10590662	      1.63301413	     19.26525428	      0.00000000	    -66.17275250	     -6.29289453	      0.75780018
      3.02500000	     38.44172529	      8.08489931	      4.00098645	     -1.11833134	      0.63383764	     -0.29644082	    -56.28143542	     -1.78233959	     -7.59621287	    -30.09912030	     15.62374075	     14.20724919	      0.00000000	     -9.61435269	      6.25580206	     -7.69644016	    -14.67157919	      1.83462310	     18.06527676	      0.00000000	    -66.19982390	     -6.71257743	      0.64763763
      3.03000000	     38.59185901	      8.38036673	      3.79441273	     -1.11048322	      0.63346135	     -0.29716199	    -56.06032121	     -2.42968524	     -8.15205345	    -31.91732130	     13.70598049	     14.78156429	      0.00000000	     -9.58441625	      6.77041468	     -6.87771364	    -16.38134641	      2.17328128	     16.67339222	      0.00000000	    -66.21033594	     -7.02725042	      0.35244483
      3.03500000	     38.77740806	      8.58298768	      3.43731090	     -1.10267004	      0.63329576	     -0.29770774	    -55.74174698	     -3.13347121	     -8.48231358	    -33.81107525	     11.54125591	     15.06034773	      0.00000000	     -9.62651518	      7.22390394	     -6.24703436	    -18.04028227	      2.45554410	     15.27579948	      0.00000000	    -66.24471362	     -7.43997377	      0.36185131
      3.04000000	     38.88172018	      8.82620168	      3.33063264	     -1.09495195	      0.63305322	     -0.29860362	    -55.30640413	     -3.74010439	     -9.12023502	    -35.73364134	      9.41510998	     15.42455521	      0.00000000	     -9.54012822	      7.74500250	     -5.20545637	    -19.81245043	      2.93709133	     13.69166965	      0.00000000	    -66.22289142	     -7.61358269	      0.08965996
      3.04500000	     39.09479830	      8.97012130	      2.97614477	     -1.08727086	      0.63306716	     -0.29923889	    -54.85136486	     -4.46515890	     -9.49747889	    -37.70198433	      7.14338193	     15.39987362	      0.00000000	     -9.64291243	      8.20040836	     -4.53419956	    -21.45285515	      3.42324825	     12.19980890	      0.00000000	    -66.29450182	     -7.94361518	      0.13730069
      3.05000000	     39.22565221	      9.09883830	      2.82837909	     -1.07970983	      0.63303076	     -0.30015800	    -54.26425286	     -5.07458900	    -10.03268167	    -39.68732179	      5.00681459	     15.36987529	      0.00000000	     -9.63592549	      8.66220555	     -3.58258277	    -23.15974921	      4.11568815	     10.61615214	      0.00000000	    -66.30300467	     -8.05156733	     -0.00403317
      3.05500000	     39.42037555	      9.21329507	      2.53219090	     -1.07213339	      0.63323749	     -0.30087522	    -53.66509341	     -5.78915083	    -10.46796885	    -41.66704085	      2.79926753	     15.03997671	      0.00000000	     -9.80710391	      9.11892520	     -2.87907549	    -24.66701996	      4.73359869	      9.27629578	      0.00000000	    -66.36412847	     -8.29676044	      0.05749815
      3.06000000	     39.43672650	      9.25151065	      2.52875994	     -1.06475418	      0.63334585	     -0.30191810	    -52.81708392	     -6.27625419	    -11.01106609	    -43.67288533	      0.83471225	     14.59875060	      0.00000000	     -9.74619415	      9.49462282	     -1.90049372	    -26.27035048	      5.55874722	      7.89940681	      0.00000000	    -66.28677321	     -8.23660015	     -0.03386947
      3.06500000	     39.65863125	      9.29749755	      2.21215421	     -1.05733645	      0.63375929	     -0.30268132	    -52.12289531	     -6.99632291	    -11.39190734	    -45.64374217	     -0.96668539	     13.89471405	      0.00000000	    -10.07549048	      9.91096913	     -1.27960064	    -27.55159970	      6.36125030	      6.70178590	      0.00000000	    -66.38222082	     -8.41495123	      0.03789182
      3.07000000	     39.76121177	      9.21869906	      2.06380384	     -1.05016417	      0.63415332	     -0.30360013	    -51.20987351	     -7.51130167	    -11.70726129	    -47.64173519	     -2.42574939	     13.01822412	      0.00000000	    -10.26511195	     10.17975220	     -0.58628579	    -28.84896368	      7.31137849	      5.57818290	      0.00000000	    -66.39460349	     -8.37327670	      0.11802295
      3.07500000	     39.92670725	      9.22516994	      1.82370104	     -1.04290031	      0.63476674	     -0.30440456	    -50.37299972	     -8.15925599	    -12.06509660	    -49.55471144	     -3.68583041	     12.02501905	      0.00000000	    -10.67543650	     10.52884757	     -0.03622910	    -29.87508671	      8.17936180	      4.65112577	      0.00000000	    -66.45319910	     -8.46508023	      0.18850050
      3.08000000	     40.06151051	      9.13458273	      1.63100431	     -1.03583773	      0.63545488	     -0.30525785	    -49.42763653	     -8.69129095	    -12.32002786	    -51.45753171	     -4.55785518	     10.84773276	      0.00000000	    -11.09103667	     10.75976918	      0.47893203	    -30.81373090	      9.11165281	      3.83708030	      0.00000000	    -66.49974848	     -8.43332181	      0.28157852
      3.08500000	     40.02234232	      8.88742437	      1.50119204	     -1.02895547	      0.63620223	     -0.30610282	    -48.17374907	     -9.05434118	    -12.39009254	    -53.38883946	     -5.14770676	      9.59114448	      0.00000000	    -11.35600160	     10.78455277	      0.88245695	    -31.65593634	     10.16237765	      3.31224382	      0.00000000	    -66.39903280	     -8.28318723	      0.47896697
